<svg height="15" xmlns="http://www.w3.org/2000/svg" xmlns:xlink="http://www.w3.org/1999/xlink" version="1.1" x="0px" y="0px" viewBox="0 0 27 27" style="enable-background:new 0 0 27 27;" xml:space="preserve"><desc>Created with Sketch.</desc><g><g transform="translate(-2.000000, -2.000000)"><g><path d="M21.3,2.3c0.4-0.4,1-0.4,1.4,0l0,0l6,6c0.4,0.4,0.4,1,0,1.4l0,0l-17,17c-0.1,0.1-0.3,0.2-0.5,0.3l0,0     l-8,2c-0.7,0.2-1.4-0.5-1.2-1.2l0,0l2-8c0-0.2,0.1-0.3,0.3-0.5l0,0L21.3,2.3z M18,8.4L5.9,20.5l-1.5,6.1l6.1-1.5L22.6,13L18,8.4z M22,4.4L19.4,7l4.6,4.6L26.6,9L22,4.4z"/></g></g></g></svg>
