<svg height="17" fill="#999999" xmlns="http://www.w3.org/2000/svg" xmlns:xlink="http://www.w3.org/1999/xlink" x="0px" y="0px" viewBox="0 0 30 30" style="enable-background:new 0 0 30 30;" xml:space="preserve"><path class="st0" fill="none" d="M12.97,3.17c-5.35,0-9.72,4.3-9.72,9.57s4.37,9.57,9.72,9.57s9.72-4.3,9.72-9.57S18.32,3.17,12.97,3.17z"/><path class="st1" d="M23.64,20.73c1.66-2.17,2.68-4.87,2.68-7.8C26.32,5.8,20.39,0,13.14,0S0,5.8,0,12.93s5.89,12.93,13.14,12.93 c2.71,0,5.25-0.83,7.35-2.23c0.03,0.03,0.03,0.03,0.07,0.07l5.76,5.67c0.41,0.4,0.98,0.63,1.52,0.63s1.12-0.2,1.52-0.63 c0.85-0.83,0.85-2.17,0-3L23.64,20.73z M13.14,21.63c-4.88,0-8.84-3.9-8.84-8.7s3.96-8.7,8.84-8.7s8.84,3.9,8.84,8.7 S18.02,21.63,13.14,21.63z"/></svg>
