<svg height="6" fill="#CCCCCC" xmlns="http://www.w3.org/2000/svg" xmlns:xlink="http://www.w3.org/1999/xlink" x="0px" y="0px" viewBox="0 0 30 16" style="enable-background:new 0 0 30 16;" xml:space="preserve"><g transform="translate(0,-952.36218)"><path d="M15.3,968.3c0.6-0.1,1.1-0.3,1.6-0.7l12.1-10.2c1.2-1,1.4-2.8,0.4-4c-1-1.2-2.8-1.4-4-0.4c0,0-0.1,0.1-0.1,0.1L15,961.8 l-10.2-8.7c-1.2-1.1-3-1-4.1,0.2s-1,3,0.2,4c0.1,0,0.1,0.1,0.1,0.1l12.1,10.2C13.7,968.2,14.5,968.4,15.3,968.3L15.3,968.3z"/></g></svg>
